<svg width="9" height="13" viewBox="0 0 9 13" fill="none" xmlns="http://www.w3.org/2000/svg">
<path d="M8.21407 5.85478L1.17031 0.353215C1.15191 0.338725 1.12979 0.329719 1.1065 0.327234C1.0832 0.324748 1.05968 0.328882 1.03863 0.339162C1.01758 0.349442 0.999861 0.36545 0.9875 0.385348C0.975139 0.405246 0.96864 0.428228 0.968751 0.451652V1.65946C0.968751 1.73603 1.00469 1.80946 1.06406 1.85634L6.68906 6.24853L1.06406 10.6407C1.00313 10.6876 0.968751 10.761 0.968751 10.8376V12.0454C0.968751 12.1501 1.08906 12.2079 1.17031 12.1438L8.21407 6.64228C8.27393 6.59558 8.32236 6.53584 8.35567 6.46761C8.38898 6.39938 8.4063 6.32445 8.4063 6.24853C8.4063 6.1726 8.38898 6.09767 8.35567 6.02944C8.32236 5.96121 8.27393 5.90148 8.21407 5.85478Z" fill="white"/>
</svg>
